<svg id="svg" version="1.1" xmlns="http://www.w3.org/2000/svg" xmlns:xlink="http://www.w3.org/1999/xlink" width="400" height="331.0344827586207" viewBox="0, 0, 400,331.0344827586207"><g id="svgg"><path id="path0" d="M9.687 176.474 C 9.097 176.618,8.389 176.923,8.115 177.151 C 7.673 177.517,7.616 185.907,7.616 250.198 L 7.616 322.832 8.512 323.420 C 9.338 323.961,10.640 324.007,25.207 324.007 L 41.006 324.007 41.861 323.204 L 42.715 322.401 42.715 295.638 L 42.715 268.874 52.413 268.874 C 61.458 268.874,62.199 268.830,63.411 268.212 C 64.876 267.465,67.139 267.342,67.989 267.964 C 68.715 268.494,68.706 320.531,67.980 320.773 C 66.588 321.236,65.899 322.217,66.414 323.002 C 66.972 323.855,67.196 323.857,70.364 323.048 C 71.971 322.637,74.731 322.538,84.810 322.528 C 94.879 322.519,97.341 322.430,97.642 322.068 C 97.916 321.738,97.993 302.611,97.931 249.800 L 97.848 177.980 83.648 177.894 C 73.439 177.832,69.320 177.913,68.995 178.183 C 68.647 178.472,68.543 179.795,68.543 183.940 C 68.543 190.649,68.448 191.167,67.104 191.759 L 66.060 192.219 65.967 198.013 C 65.868 204.219,65.932 204.549,67.624 206.551 L 68.543 207.639 68.543 222.322 C 68.543 235.568,68.490 237.049,67.996 237.459 C 66.835 238.424,51.365 238.274,48.334 237.268 C 46.934 236.804,45.115 236.424,44.293 236.424 L 42.797 236.424 42.549 232.368 C 42.413 230.137,42.320 226.300,42.343 223.841 C 42.783 177.014,42.774 176.337,41.734 176.980 C 41.576 177.077,41.385 176.969,41.309 176.740 C 41.148 176.259,11.585 176.010,9.687 176.474 M237.417 176.533 C 231.290 177.777,230.757 177.815,219.011 177.815 C 211.531 177.815,207.008 177.940,206.601 178.157 C 206.004 178.476,205.960 178.906,205.960 184.373 C 205.960 189.274,205.850 190.629,205.294 192.557 C 203.813 197.689,203.819 197.387,203.813 261.660 C 203.808 319.928,203.836 322.852,204.399 323.415 C 205.016 324.032,230.978 324.531,235.303 324.009 C 237.907 323.695,237.748 325.663,237.748 293.702 L 237.748 265.250 254.351 265.158 C 270.178 265.071,270.972 265.037,271.322 264.446 C 271.908 263.454,273.610 261.725,274.421 261.297 C 274.830 261.081,275.166 260.696,275.166 260.441 C 275.166 260.187,275.426 259.888,275.745 259.777 C 276.064 259.666,276.846 258.976,277.483 258.243 C 278.121 257.511,282.540 253.000,287.303 248.220 L 295.963 239.529 296.182 237.728 C 296.302 236.738,296.353 228.385,296.296 219.166 L 296.192 202.405 289.156 195.361 C 285.286 191.487,282.119 188.255,282.119 188.178 C 282.119 187.898,275.829 181.788,275.540 181.788 C 275.377 181.788,275.162 181.479,275.063 181.101 C 274.964 180.724,274.575 180.334,274.197 180.235 C 273.819 180.136,273.510 179.906,273.510 179.724 C 273.510 178.994,270.827 176.744,269.624 176.464 C 267.978 176.082,239.336 176.143,237.417 176.533 M338.463 176.897 C 337.554 177.458,336.590 177.616,333.096 177.780 L 328.836 177.980 323.866 182.855 C 320.658 186.001,318.569 187.800,317.974 187.926 C 315.541 188.444,313.414 189.311,313.479 189.758 C 313.517 190.019,313.157 190.518,312.680 190.868 C 312.202 191.218,311.934 191.306,312.083 191.065 C 312.269 190.764,312.227 190.705,311.949 190.876 C 311.726 191.014,311.624 191.335,311.722 191.590 C 311.820 191.845,311.718 192.055,311.496 192.057 C 311.274 192.059,310.478 192.648,309.726 193.367 C 308.975 194.086,308.243 194.568,308.101 194.439 C 307.958 194.311,307.955 194.403,308.095 194.646 C 308.354 195.093,307.066 196.277,306.515 196.098 C 306.365 196.050,306.322 196.138,306.419 196.295 C 306.710 196.767,305.603 198.074,305.081 197.874 C 304.813 197.771,304.691 197.834,304.804 198.017 C 304.915 198.197,304.858 198.344,304.678 198.344 C 304.497 198.344,304.251 198.653,304.131 199.031 C 303.984 199.494,303.739 199.650,303.374 199.510 C 303.078 199.396,302.944 199.412,303.078 199.546 C 303.349 199.817,301.675 201.707,301.345 201.503 C 300.947 201.257,300.910 202.554,300.781 221.003 L 300.651 239.522 301.436 240.373 C 301.868 240.842,302.318 241.500,302.437 241.836 C 302.555 242.172,302.936 242.521,303.282 242.612 C 303.629 242.702,303.986 243.059,304.076 243.404 C 304.167 243.749,304.615 244.174,305.072 244.348 C 305.529 244.522,306.001 244.971,306.120 245.345 C 306.239 245.720,306.553 246.026,306.817 246.026 C 307.082 246.026,307.469 246.399,307.676 246.854 C 307.884 247.310,308.257 247.682,308.505 247.682 C 308.754 247.682,309.104 248.069,309.284 248.542 C 309.464 249.015,309.893 249.476,310.238 249.566 C 310.583 249.656,310.943 250.025,311.038 250.386 C 311.132 250.747,311.504 251.120,311.865 251.214 C 312.226 251.309,312.595 251.668,312.686 252.013 C 312.776 252.359,313.224 252.783,313.681 252.957 C 314.139 253.131,314.610 253.580,314.729 253.955 C 314.848 254.329,315.162 254.636,315.427 254.636 C 315.692 254.636,316.078 255.008,316.285 255.464 C 316.493 255.919,316.778 256.291,316.919 256.291 C 317.308 256.291,324.688 263.711,324.932 264.347 C 325.049 264.651,325.340 264.901,325.578 264.901 C 325.816 264.901,326.404 265.348,326.883 265.894 L 327.755 266.887 339.998 266.887 C 352.108 266.887,352.243 266.895,352.420 267.574 C 352.519 267.952,352.895 268.338,353.256 268.433 C 353.617 268.527,353.986 268.887,354.076 269.232 C 354.167 269.577,354.615 270.002,355.072 270.176 C 355.529 270.350,356.001 270.798,356.120 271.173 C 356.239 271.548,356.553 271.854,356.819 271.854 C 357.084 271.854,357.444 272.231,357.619 272.691 C 357.794 273.151,358.163 273.614,358.439 273.719 C 359.316 274.056,359.168 284.289,358.278 284.845 C 357.914 285.073,357.616 285.462,357.616 285.711 C 357.616 285.984,357.412 286.085,357.101 285.966 C 356.739 285.827,356.483 286.064,356.238 286.765 C 356.016 287.404,355.695 287.729,355.346 287.672 C 355.000 287.615,354.834 287.781,354.890 288.125 C 354.971 288.618,354.314 289.126,353.477 289.217 C 353.295 289.237,353.189 289.511,353.243 289.825 C 353.297 290.140,353.146 290.397,352.909 290.397 C 352.671 290.397,352.301 290.680,352.085 291.025 C 351.461 292.024,343.185 292.067,342.490 291.075 C 342.229 290.702,341.800 290.397,341.538 290.397 C 341.275 290.397,341.060 290.264,341.060 290.101 C 341.060 289.676,338.246 286.755,337.837 286.755 C 337.648 286.755,337.414 286.446,337.315 286.068 C 337.216 285.690,336.826 285.300,336.448 285.202 C 335.789 285.029,335.762 284.809,335.762 279.575 C 335.762 270.648,337.266 271.380,318.681 271.265 C 307.660 271.197,303.485 271.277,302.779 271.569 C 302.252 271.786,301.672 271.977,301.491 271.992 C 301.309 272.007,301.151 272.243,301.140 272.517 C 301.130 272.790,301.014 273.242,300.883 273.522 C 300.622 274.081,300.726 297.216,300.993 298.007 C 301.084 298.276,301.606 298.881,302.152 299.351 C 304.327 301.223,306.457 303.400,306.465 303.759 C 306.469 303.968,306.730 304.118,307.044 304.093 C 307.359 304.068,307.616 304.156,307.616 304.290 C 307.616 304.739,309.123 306.291,309.558 306.291 C 309.795 306.291,309.927 306.476,309.852 306.702 C 309.726 307.081,310.914 308.278,311.417 308.278 C 311.538 308.278,312.334 309.040,313.186 309.971 C 315.172 312.142,318.543 315.537,318.543 315.367 C 318.543 315.295,319.623 316.375,320.944 317.767 C 325.318 322.379,326.875 323.769,327.895 323.973 C 329.287 324.251,365.101 324.186,366.722 323.902 C 367.626 323.743,368.147 323.441,368.364 322.949 C 368.539 322.553,369.010 322.079,369.411 321.896 C 369.813 321.713,370.239 321.256,370.358 320.881 C 370.477 320.506,370.725 320.199,370.909 320.199 C 371.298 320.199,373.841 317.624,373.841 317.230 C 373.841 317.084,374.150 316.884,374.528 316.785 C 374.906 316.686,375.292 316.310,375.386 315.949 C 375.481 315.588,375.853 315.216,376.214 315.121 C 376.575 315.027,376.951 314.641,377.050 314.263 C 377.149 313.885,377.356 313.576,377.511 313.576 C 377.877 313.576,382.450 309.003,382.450 308.636 C 382.450 308.482,382.759 308.275,383.137 308.176 C 383.515 308.077,383.900 307.705,383.993 307.350 C 384.086 306.994,384.522 306.539,384.962 306.339 C 385.402 306.138,385.762 305.748,385.762 305.471 C 385.762 305.194,385.905 304.967,386.081 304.967 C 386.450 304.967,391.060 300.430,391.060 300.067 C 391.060 299.934,391.395 299.679,391.805 299.499 C 392.214 299.319,392.595 298.852,392.651 298.462 C 392.707 298.071,393.042 297.489,393.396 297.169 C 394.143 296.493,394.433 260.878,393.695 260.422 C 393.506 260.305,392.982 259.626,392.532 258.913 C 392.082 258.199,391.509 257.616,391.260 257.616 C 391.010 257.616,390.725 257.307,390.626 256.929 C 390.527 256.551,390.151 256.165,389.790 256.071 C 389.429 255.976,389.057 255.604,388.962 255.243 C 388.868 254.882,388.513 254.514,388.174 254.425 C 387.834 254.336,387.408 253.938,387.226 253.539 C 387.045 253.141,386.715 252.852,386.495 252.897 C 386.274 252.943,386.093 252.837,386.093 252.662 C 386.093 252.353,384.083 250.278,381.677 248.101 C 381.025 247.512,380.332 246.730,380.135 246.363 C 379.939 245.996,379.584 245.695,379.346 245.695 C 379.109 245.695,378.741 245.314,378.529 244.849 C 378.316 244.383,377.995 244.094,377.813 244.206 C 377.632 244.318,377.483 244.267,377.483 244.093 C 377.483 243.830,375.666 241.898,373.783 240.158 C 373.542 239.936,373.150 239.563,372.913 239.330 C 369.773 236.248,369.062 235.607,368.856 235.667 C 368.723 235.706,368.427 235.289,368.200 234.739 C 367.957 234.153,367.609 233.808,367.358 233.905 C 367.123 233.995,366.871 233.891,366.799 233.673 C 366.701 233.381,363.496 233.235,354.443 233.113 L 342.219 232.947 341.308 232.142 C 340.807 231.700,340.397 231.141,340.397 230.901 C 340.397 230.660,340.260 230.501,340.093 230.546 C 339.925 230.592,339.112 229.842,338.285 228.879 C 337.458 227.917,336.681 227.147,336.557 227.169 C 335.947 227.277,335.771 225.869,335.767 220.831 L 335.762 215.338 336.589 214.961 C 337.045 214.753,337.417 214.381,337.417 214.133 C 337.417 213.885,337.777 213.519,338.216 213.318 C 338.656 213.118,339.113 212.647,339.232 212.272 C 339.351 211.897,339.665 211.589,339.930 211.589 C 340.195 211.589,340.581 211.217,340.789 210.762 C 340.996 210.306,341.364 209.934,341.607 209.934 C 341.849 209.934,342.233 209.636,342.461 209.272 C 342.842 208.662,343.233 208.609,347.408 208.609 C 351.651 208.609,351.956 208.652,352.152 209.272 C 352.268 209.636,352.500 209.934,352.669 209.934 C 353.141 209.934,354.815 211.955,354.691 212.375 C 354.630 212.581,354.683 212.646,354.809 212.520 C 354.934 212.395,355.915 213.160,356.988 214.220 L 358.940 216.148 358.940 220.883 C 358.940 225.886,359.629 228.700,360.749 228.270 C 360.992 228.177,361.290 228.260,361.410 228.454 C 361.560 228.697,366.298 228.808,376.459 228.808 L 391.289 228.808 392.664 227.297 L 394.040 225.785 394.040 214.906 C 394.040 203.797,393.981 202.980,393.176 202.980 C 392.923 202.980,392.715 202.694,392.715 202.345 C 392.715 201.428,392.369 200.662,391.954 200.662 C 391.561 200.662,389.073 198.111,389.073 197.708 C 389.073 197.570,388.713 197.293,388.274 197.093 C 387.834 196.893,387.377 196.422,387.258 196.047 C 387.139 195.671,386.771 195.364,386.440 195.364 C 386.109 195.364,385.758 195.055,385.659 194.677 C 385.560 194.300,385.183 193.913,384.821 193.818 C 384.459 193.724,384.072 193.288,383.962 192.850 C 383.852 192.411,383.619 192.053,383.444 192.053 C 383.016 192.053,378.477 187.520,378.477 187.093 C 378.477 186.907,378.196 186.755,377.853 186.755 C 377.501 186.755,377.151 186.456,377.050 186.068 C 376.951 185.690,376.561 185.300,376.184 185.202 C 375.806 185.103,375.497 184.867,375.497 184.678 C 375.497 184.489,374.230 183.101,372.682 181.595 C 371.134 180.088,369.868 178.695,369.868 178.500 C 369.868 178.305,369.605 178.146,369.284 178.146 C 368.963 178.146,368.553 177.812,368.373 177.404 C 367.881 176.286,366.695 176.196,352.483 176.205 C 340.023 176.214,339.531 176.238,338.463 176.897 M121.364 190.202 C 112.107 199.410,108.830 202.872,108.595 203.693 C 108.239 204.933,108.208 282.321,108.560 291.620 L 108.775 297.313 112.287 300.892 C 115.743 304.414,115.807 304.508,116.381 306.879 C 116.769 308.488,117.171 309.400,117.587 309.623 C 117.931 309.807,118.212 310.167,118.212 310.424 C 118.212 310.681,118.622 311.087,119.123 311.327 C 119.623 311.567,120.033 311.985,120.033 312.256 C 120.033 312.527,120.257 312.748,120.530 312.748 C 120.803 312.748,121.279 313.149,121.588 313.638 C 121.897 314.127,122.482 314.705,122.887 314.922 C 123.292 315.138,123.955 315.707,124.361 316.184 C 125.623 317.670,131.126 323.161,131.126 322.935 C 131.126 322.818,131.337 323.010,131.596 323.364 C 132.052 323.988,132.652 324.007,152.235 324.007 L 172.403 324.007 173.950 322.460 C 174.801 321.609,175.497 320.752,175.497 320.556 C 175.497 320.359,175.717 320.199,175.986 320.199 C 176.255 320.199,176.719 319.826,177.017 319.371 C 177.316 318.916,177.742 318.543,177.965 318.543 C 178.188 318.543,178.540 318.171,178.748 317.715 C 178.955 317.260,179.328 316.887,179.576 316.887 C 179.823 316.887,180.196 316.515,180.403 316.060 C 180.611 315.604,181.010 315.232,181.291 315.232 C 181.572 315.232,181.965 314.876,182.163 314.440 C 182.361 314.005,182.879 313.487,183.315 313.289 C 183.750 313.090,184.106 312.771,184.106 312.579 C 184.106 312.159,186.280 309.934,186.691 309.934 C 186.850 309.934,187.150 309.561,187.357 309.106 C 187.564 308.651,187.964 308.278,188.245 308.278 C 188.526 308.278,188.924 307.908,189.130 307.457 C 189.336 307.005,189.772 306.550,190.100 306.446 C 190.427 306.343,190.780 305.990,190.883 305.662 C 190.987 305.335,191.442 304.899,191.894 304.693 C 192.346 304.487,192.715 304.162,192.715 303.970 C 192.715 303.515,194.906 301.325,195.361 301.325 C 195.554 301.325,195.853 300.952,196.026 300.497 C 196.200 300.041,196.563 299.669,196.834 299.669 C 197.991 299.669,198.013 298.812,198.013 255.141 L 198.013 211.894 197.283 210.906 C 196.712 210.133,196.512 209.291,196.364 207.029 C 196.108 203.112,196.811 203.987,182.827 190.161 L 170.364 177.838 152.090 177.826 L 133.816 177.815 121.364 190.202 M162.059 210.916 L 166.060 214.878 166.163 220.802 L 166.266 226.727 165.256 228.812 L 164.246 230.897 164.234 257.699 C 164.224 281.611,164.169 284.481,163.717 284.308 C 163.438 284.201,163.298 284.255,163.405 284.429 C 163.680 284.872,162.307 286.166,161.857 285.888 C 161.642 285.755,161.579 285.808,161.707 286.014 C 161.917 286.355,161.189 287.153,157.947 290.135 C 157.127 290.889,156.666 291.382,156.922 291.231 C 157.219 291.056,157.309 291.083,157.172 291.306 C 156.711 292.051,148.100 291.840,147.690 291.074 C 147.491 290.702,147.106 290.397,146.834 290.397 C 146.563 290.397,146.204 290.038,146.037 289.598 C 145.870 289.158,145.427 288.701,145.052 288.582 C 144.677 288.463,144.371 288.149,144.371 287.884 C 144.371 287.620,144.011 287.239,143.571 287.039 C 143.131 286.838,142.695 286.383,142.602 286.028 C 142.509 285.672,142.138 285.304,141.777 285.210 C 140.748 284.941,140.738 284.728,140.733 263.690 C 140.729 244.884,140.696 243.779,140.149 243.921 C 138.041 244.468,137.766 242.712,137.756 228.640 C 137.747 214.412,137.458 215.629,141.932 211.060 C 146.272 206.628,145.298 207.011,152.291 206.980 L 158.059 206.954 162.059 210.916 M254.305 209.272 C 254.669 209.636,255.190 209.934,255.464 209.934 C 255.737 209.934,255.960 210.106,255.960 210.316 C 255.960 210.767,258.493 213.245,258.954 213.245 C 259.129 213.245,259.272 213.405,259.272 213.600 C 259.272 214.058,260.114 214.901,260.572 214.901 C 260.768 214.901,260.927 215.101,260.927 215.346 C 260.927 215.591,261.225 216.061,261.589 216.391 C 262.180 216.925,262.252 217.411,262.252 220.867 L 262.252 224.745 260.623 226.399 C 259.727 227.310,258.756 228.146,258.465 228.257 C 258.175 228.369,257.794 228.836,257.619 229.296 C 257.444 229.756,257.098 230.132,256.849 230.132 C 256.601 230.132,256.228 230.505,256.021 230.960 C 255.813 231.416,255.418 231.788,255.142 231.788 C 254.867 231.788,254.455 232.086,254.228 232.450 C 253.833 233.083,253.456 233.113,245.781 233.113 L 237.748 233.113 237.748 220.861 L 237.748 208.609 245.695 208.609 C 253.201 208.609,253.679 208.646,254.305 209.272 " stroke="none" fill="#cb9b13" fill-rule="evenodd"></path><path id="path1" d="M281.883 2.304 C 280.363 2.444,279.270 2.727,278.877 3.083 C 278.363 3.549,277.486 3.647,273.649 3.669 C 266.218 3.711,263.574 4.015,262.991 4.893 C 262.722 5.298,262.320 5.629,262.097 5.629 C 261.100 5.629,260.596 6.828,260.596 9.199 C 260.596 11.636,261.063 13.245,261.770 13.245 C 261.993 13.245,262.419 13.616,262.716 14.070 C 263.081 14.626,263.682 14.963,264.566 15.104 C 265.436 15.243,265.941 15.521,266.072 15.934 C 266.181 16.275,266.653 16.651,267.123 16.769 C 267.592 16.887,268.249 17.256,268.583 17.589 C 268.916 17.922,269.565 18.290,270.025 18.405 C 271.032 18.658,271.092 19.191,270.199 19.956 C 269.834 20.268,269.536 20.823,269.536 21.189 C 269.536 21.555,269.402 21.854,269.239 21.854 C 269.075 21.854,268.613 22.484,268.211 23.254 C 267.810 24.024,267.199 24.852,266.853 25.094 C 266.508 25.336,266.225 25.819,266.225 26.166 C 266.225 26.514,265.960 26.940,265.635 27.114 C 265.311 27.287,264.836 27.963,264.580 28.615 C 263.994 30.110,263.665 30.116,263.388 28.639 C 263.268 27.999,263.032 27.391,262.863 27.286 C 262.694 27.182,262.188 26.513,261.737 25.800 C 261.287 25.087,260.697 24.503,260.426 24.503 C 260.155 24.503,259.934 24.299,259.934 24.048 C 259.934 23.798,259.338 22.942,258.609 22.145 C 257.881 21.348,257.285 20.584,257.285 20.447 C 257.285 20.310,257.061 20.199,256.788 20.199 C 256.515 20.199,256.291 20.050,256.291 19.868 C 256.291 19.685,256.017 19.536,255.682 19.536 C 255.347 19.536,254.903 19.164,254.696 18.709 C 254.489 18.253,254.189 17.881,254.030 17.881 C 253.871 17.881,253.273 17.434,252.701 16.887 C 252.129 16.341,251.453 15.894,251.197 15.894 C 250.942 15.894,250.658 15.700,250.567 15.462 C 250.476 15.224,249.819 14.838,249.107 14.603 C 248.379 14.362,247.675 13.864,247.499 13.465 C 247.288 12.986,246.774 12.688,245.927 12.552 C 245.182 12.433,244.464 12.060,244.169 11.639 C 243.895 11.247,243.372 10.927,243.005 10.927 C 242.639 10.927,241.842 10.548,241.234 10.084 C 240.626 9.620,239.577 9.151,238.904 9.041 C 238.231 8.932,237.330 8.492,236.902 8.064 C 236.341 7.503,235.748 7.285,234.783 7.285 C 234.047 7.285,233.444 7.138,233.444 6.958 C 233.444 6.371,231.085 5.629,229.219 5.629 C 227.719 5.629,227.263 5.488,226.660 4.837 C 225.197 3.258,213.470 3.250,212.777 4.828 C 212.595 5.243,211.903 5.685,211.038 5.941 C 210.223 6.181,209.603 6.567,209.603 6.832 C 209.603 7.089,209.233 7.467,208.781 7.673 C 208.329 7.879,207.875 8.315,207.771 8.643 C 207.667 8.970,207.299 9.327,206.954 9.437 C 206.608 9.547,206.230 9.935,206.114 10.301 C 205.998 10.666,205.544 11.102,205.104 11.269 C 204.664 11.436,204.305 11.797,204.305 12.070 C 204.305 12.344,203.946 12.802,203.508 13.089 C 203.070 13.376,202.621 13.973,202.510 14.415 C 202.399 14.857,201.864 15.674,201.320 16.230 C 200.776 16.786,200.331 17.460,200.331 17.727 C 200.331 17.994,200.184 18.212,200.004 18.212 C 199.515 18.212,198.675 20.451,198.675 21.759 C 198.675 22.550,198.444 23.095,197.930 23.510 C 197.196 24.105,197.185 24.223,197.185 31.954 C 197.185 39.684,197.196 39.802,197.930 40.397 C 198.415 40.789,198.675 41.361,198.675 42.034 C 198.675 42.775,199.005 43.398,199.834 44.227 C 200.472 44.865,200.993 45.530,200.993 45.706 C 200.993 45.882,201.174 46.026,201.395 46.026 C 201.616 46.026,202.101 46.408,202.473 46.875 C 202.938 47.458,203.590 47.782,204.555 47.912 C 205.445 48.031,205.960 48.269,205.960 48.562 C 205.960 49.221,207.374 49.669,209.459 49.669 C 210.496 49.669,211.258 49.816,211.258 50.017 C 211.258 50.776,213.598 51.279,218.219 51.513 C 221.804 51.695,223.102 51.877,223.364 52.236 C 223.813 52.849,226.048 53.278,228.891 53.297 C 230.678 53.308,231.260 53.445,231.794 53.979 C 232.249 54.434,233.105 54.714,234.479 54.858 C 235.968 55.014,236.699 55.272,237.272 55.846 C 237.774 56.347,238.437 56.623,239.144 56.623 C 239.870 56.623,240.374 56.840,240.641 57.268 C 240.864 57.624,241.605 58.018,242.294 58.145 C 242.981 58.272,243.871 58.726,244.272 59.155 C 244.717 59.630,245.380 59.934,245.973 59.934 C 246.643 59.934,247.112 60.190,247.486 60.762 C 247.784 61.217,248.198 61.589,248.406 61.589 C 249.124 61.589,252.104 63.723,253.863 65.496 C 255.615 67.262,256.067 68.212,255.155 68.212 C 254.894 68.212,254.586 68.510,254.470 68.874 C 254.355 69.238,253.980 69.536,253.639 69.536 C 253.297 69.536,252.793 69.857,252.519 70.248 C 252.224 70.669,251.507 71.042,250.762 71.162 C 249.893 71.301,249.402 71.593,249.176 72.106 C 248.939 72.645,248.569 72.848,247.819 72.848 C 246.545 72.848,244.651 73.454,244.200 74.007 C 244.014 74.234,243.231 74.526,242.459 74.656 C 241.687 74.787,240.871 75.155,240.644 75.475 C 240.360 75.876,239.614 76.112,238.241 76.235 C 237.132 76.334,235.699 76.723,235.006 77.112 C 234.322 77.496,232.908 77.907,231.865 78.026 C 229.440 78.301,228.477 78.663,228.477 79.296 C 228.477 79.710,227.954 79.802,225.579 79.803 C 222.381 79.805,220.259 80.251,219.979 80.981 C 219.834 81.361,218.937 81.457,215.544 81.457 C 210.827 81.457,207.947 81.907,207.947 82.643 C 207.947 83.556,180.182 83.315,178.612 82.389 C 177.492 81.728,176.823 81.652,170.899 81.516 C 166.155 81.408,164.322 81.253,164.077 80.942 C 163.465 80.164,161.141 79.805,156.705 79.803 C 153.133 79.802,152.318 79.714,152.318 79.330 C 152.318 78.341,150.110 78.087,141.519 78.091 L 133.058 78.094 131.768 78.947 C 130.572 79.739,130.204 79.801,126.728 79.801 C 123.440 79.801,122.776 79.900,121.340 80.599 C 120.097 81.203,118.991 81.429,116.754 81.535 C 114.225 81.655,113.724 81.777,113.224 82.394 C 112.769 82.956,112.286 83.113,111.006 83.113 C 109.279 83.113,107.451 83.597,106.623 84.275 C 106.349 84.498,105.457 84.766,104.639 84.869 C 103.703 84.988,102.947 85.311,102.597 85.744 C 102.292 86.121,101.545 86.517,100.938 86.624 C 99.490 86.880,97.682 87.697,97.682 88.095 C 97.682 88.269,97.396 88.411,97.045 88.411 C 96.695 88.411,95.987 88.764,95.472 89.196 C 94.958 89.627,94.059 90.085,93.475 90.212 C 92.892 90.339,92.330 90.708,92.227 91.032 C 92.125 91.355,91.425 91.823,90.673 92.071 C 89.896 92.328,89.239 92.778,89.151 93.116 C 89.065 93.442,88.726 93.709,88.396 93.709 C 88.066 93.709,87.525 94.052,87.193 94.471 C 86.861 94.891,86.314 95.338,85.978 95.466 C 85.642 95.594,85.290 95.996,85.195 96.359 C 85.100 96.723,84.817 97.020,84.567 97.020 C 84.316 97.020,83.924 97.330,83.695 97.710 C 83.466 98.089,82.724 98.686,82.047 99.035 C 81.371 99.385,80.663 99.958,80.475 100.310 C 80.287 100.661,79.835 101.043,79.471 101.159 C 79.106 101.274,78.808 101.586,78.808 101.852 C 78.808 102.117,78.444 102.472,78.000 102.641 C 77.556 102.810,77.035 103.243,76.842 103.604 C 76.649 103.965,76.209 104.349,75.864 104.459 C 75.519 104.568,75.158 104.962,75.060 105.334 C 74.963 105.705,74.575 106.090,74.197 106.189 C 73.819 106.288,73.510 106.571,73.510 106.818 C 73.510 107.065,73.063 107.499,72.517 107.781 C 71.970 108.064,71.523 108.444,71.523 108.625 C 71.523 108.806,71.151 109.124,70.695 109.332 C 70.240 109.539,69.868 109.912,69.868 110.160 C 69.868 110.407,69.498 110.779,69.046 110.985 C 68.594 111.190,68.142 111.618,68.042 111.935 C 67.941 112.252,67.555 112.591,67.183 112.688 C 66.811 112.785,66.428 113.169,66.330 113.541 C 66.233 113.912,65.872 114.306,65.527 114.415 C 65.182 114.525,64.746 114.902,64.558 115.254 C 64.164 115.989,62.977 116.112,62.721 115.445 C 62.626 115.197,61.972 114.805,61.268 114.573 C 60.506 114.321,59.920 113.890,59.820 113.508 C 59.727 113.154,59.350 112.786,58.980 112.689 C 58.611 112.593,58.075 112.157,57.789 111.720 C 57.503 111.284,57.055 110.927,56.792 110.927 C 56.530 110.927,56.170 110.656,55.992 110.325 C 55.815 109.993,55.065 109.522,54.325 109.278 C 53.585 109.034,52.980 108.632,52.980 108.384 C 52.980 108.136,52.570 107.771,52.070 107.573 C 51.569 107.376,50.935 107.083,50.662 106.923 C 48.598 105.715,47.943 105.629,40.747 105.629 C 33.630 105.629,30.464 106.047,30.464 106.985 C 30.464 107.150,29.952 107.285,29.326 107.285 C 27.840 107.285,26.490 107.812,26.490 108.392 C 26.490 108.684,25.977 108.922,25.095 109.040 C 24.113 109.172,23.516 109.479,23.080 110.077 C 22.662 110.651,22.150 110.927,21.503 110.927 C 20.858 110.927,20.375 111.186,20.025 111.720 C 19.739 112.157,19.203 112.593,18.834 112.689 C 18.465 112.786,18.085 113.161,17.990 113.524 C 17.896 113.886,17.460 114.272,17.022 114.382 C 16.584 114.492,16.225 114.723,16.225 114.896 C 16.225 115.300,14.112 117.417,13.246 117.880 C 12.881 118.075,12.583 118.436,12.583 118.682 C 12.583 118.928,12.210 119.373,11.755 119.672 C 11.300 119.970,10.927 120.417,10.927 120.665 C 10.927 120.913,10.555 121.360,10.099 121.658 C 9.644 121.957,9.272 122.422,9.272 122.693 C 9.272 122.963,8.825 123.802,8.278 124.556 C 7.732 125.310,7.285 126.128,7.285 126.374 C 7.285 126.620,7.138 126.821,6.958 126.821 C 6.459 126.821,5.629 129.071,5.629 130.425 C 5.629 131.358,5.460 131.705,4.884 131.958 C 3.153 132.717,3.173 149.276,4.907 150.680 C 5.401 151.080,5.629 151.632,5.629 152.428 C 5.629 153.168,5.915 153.932,6.414 154.528 C 6.846 155.042,7.305 155.948,7.434 156.539 C 7.563 157.131,7.952 157.813,8.298 158.056 C 8.644 158.298,9.148 159.026,9.418 159.672 C 9.688 160.318,10.138 160.935,10.418 161.042 C 10.698 161.150,10.927 161.455,10.927 161.721 C 10.927 161.986,11.270 162.475,11.690 162.807 C 12.109 163.139,12.552 163.674,12.675 163.995 C 12.797 164.316,13.253 164.715,13.688 164.880 C 14.123 165.046,14.570 165.417,14.681 165.706 C 14.791 165.995,15.259 166.403,15.719 166.612 C 16.180 166.822,16.556 167.187,16.556 167.424 C 16.556 167.661,17.150 168.032,17.876 168.250 C 18.602 168.467,19.419 168.985,19.691 169.401 C 20.033 169.922,20.650 170.226,21.682 170.381 C 22.644 170.525,23.179 170.772,23.179 171.072 C 23.179 171.658,24.523 172.185,26.015 172.185 C 26.640 172.185,27.152 172.320,27.152 172.485 C 27.152 172.650,27.849 173.023,28.701 173.313 C 32.078 174.464,47.020 173.840,47.020 172.548 C 47.020 172.398,48.092 172.198,49.402 172.104 C 51.230 171.973,51.906 171.783,52.308 171.286 C 52.672 170.837,53.440 170.570,54.810 170.414 C 56.131 170.265,56.960 169.985,57.306 169.572 C 57.591 169.232,58.447 168.848,59.210 168.719 L 60.596 168.485 60.614 171.246 C 60.640 175.352,61.104 179.078,61.668 179.728 C 61.986 180.094,62.239 181.366,62.373 183.278 C 62.558 185.903,62.681 186.345,63.410 186.987 C 63.939 187.453,64.238 188.067,64.238 188.685 C 64.238 191.257,65.406 192.525,67.077 191.767 C 68.454 191.143,68.543 190.668,68.543 183.940 C 68.543 179.795,68.647 178.472,68.995 178.183 C 69.320 177.913,73.439 177.832,83.648 177.894 L 97.848 177.980 97.931 249.800 C 97.993 302.611,97.916 321.738,97.642 322.068 C 97.341 322.430,94.879 322.519,84.810 322.528 C 72.498 322.540,69.128 322.793,68.143 323.777 C 67.730 324.190,68.689 325.110,69.808 325.373 C 70.296 325.488,71.068 325.928,71.523 326.350 C 71.979 326.772,72.985 327.219,73.759 327.343 C 74.532 327.467,75.166 327.682,75.166 327.821 C 75.166 328.348,77.904 329.139,79.728 329.139 C 81.228 329.139,81.711 329.270,82.017 329.760 C 83.096 331.489,105.419 331.359,106.086 329.620 C 106.188 329.355,106.486 329.139,106.750 329.139 C 107.393 329.139,109.934 326.742,109.934 326.135 C 109.934 325.870,110.259 325.507,110.657 325.327 C 111.055 325.147,111.524 324.553,111.698 324.007 C 111.872 323.460,112.293 322.616,112.633 322.131 C 112.972 321.645,113.347 320.751,113.466 320.144 C 113.584 319.537,114.030 318.712,114.456 318.311 C 115.044 317.758,115.232 317.224,115.232 316.111 C 115.232 315.204,115.398 314.577,115.666 314.474 C 116.900 314.000,117.203 309.899,116.257 306.488 C 115.659 304.329,115.455 304.042,112.201 300.777 L 108.775 297.340 108.560 291.633 C 108.208 282.313,108.239 204.933,108.595 203.693 C 108.830 202.872,112.107 199.410,121.364 190.202 L 133.816 177.815 152.090 177.826 L 170.364 177.838 182.830 190.161 C 196.380 203.555,196.357 203.528,196.358 206.854 C 196.359 210.850,198.384 213.160,199.515 210.454 C 199.786 209.804,200.138 209.272,200.295 209.272 C 200.664 209.272,201.235 207.814,201.527 206.126 C 201.653 205.397,202.032 204.607,202.368 204.369 C 202.705 204.131,202.981 203.535,202.982 203.044 C 202.983 202.554,203.219 201.705,203.505 201.159 C 203.792 200.613,204.161 198.974,204.327 197.517 C 204.492 196.060,204.927 193.828,205.294 192.557 C 205.850 190.629,205.960 189.274,205.960 184.373 C 205.960 178.906,206.004 178.476,206.601 178.157 C 207.007 177.940,211.570 177.812,219.101 177.809 C 227.836 177.805,231.527 177.684,233.113 177.351 C 234.296 177.102,236.040 176.794,236.987 176.665 C 237.934 176.537,238.883 176.222,239.097 175.965 C 239.310 175.707,239.921 175.497,240.454 175.497 C 241.062 175.497,241.708 175.188,242.190 174.669 C 243.077 173.712,247.682 173.378,247.682 174.271 C 247.682 175.397,249.794 175.568,263.774 175.574 C 277.733 175.579,279.801 175.402,279.801 174.201 C 279.801 173.977,285.474 173.535,289.570 173.438 C 292.366 173.372,295.194 173.956,295.798 174.724 C 296.185 175.217,296.754 175.497,297.367 175.497 C 298.028 175.497,298.499 175.756,298.872 176.325 C 299.170 176.780,299.614 177.152,299.860 177.152 C 300.105 177.152,300.572 177.431,300.898 177.772 C 301.224 178.113,302.049 178.589,302.732 178.832 C 303.415 179.074,303.974 179.479,303.974 179.731 C 303.974 179.983,304.421 180.359,304.967 180.565 C 305.513 180.771,305.960 181.144,305.960 181.393 C 305.960 181.642,306.407 182.014,306.954 182.221 C 307.500 182.427,307.947 182.762,307.947 182.966 C 307.947 183.373,309.346 184.106,310.123 184.106 C 310.392 184.106,310.754 184.478,310.927 184.934 C 311.100 185.389,311.452 185.762,311.709 185.762 C 311.965 185.762,312.420 186.134,312.718 186.589 C 313.016 187.045,313.555 187.417,313.915 187.417 C 314.360 187.417,314.570 187.641,314.570 188.115 C 314.570 188.584,314.725 188.753,315.043 188.631 C 315.303 188.531,316.085 188.350,316.781 188.229 C 318.591 187.913,319.824 186.957,324.614 182.158 L 328.864 177.900 333.058 177.746 C 338.127 177.560,339.405 177.089,339.402 175.405 C 339.399 173.838,338.801 171.948,338.239 171.732 C 337.942 171.618,337.748 171.110,337.748 170.448 C 337.748 169.846,337.301 168.491,336.755 167.438 C 336.209 166.385,335.762 165.112,335.762 164.609 C 335.762 164.047,335.443 163.419,334.934 162.976 C 334.402 162.514,334.106 161.908,334.106 161.285 C 334.106 160.660,333.829 160.095,333.329 159.702 C 332.894 159.360,332.451 158.552,332.323 157.866 C 332.196 157.193,331.821 156.451,331.488 156.218 C 331.156 155.985,330.774 155.295,330.640 154.685 C 330.506 154.074,330.107 153.286,329.754 152.933 C 329.401 152.580,328.973 151.925,328.803 151.477 C 328.633 151.029,328.282 150.662,328.024 150.662 C 327.515 150.662,327.152 149.973,327.152 149.004 C 327.152 148.667,326.816 148.121,326.406 147.789 C 325.995 147.457,325.477 146.776,325.254 146.275 C 325.031 145.774,324.658 145.364,324.426 145.364 C 324.193 145.364,323.796 144.898,323.544 144.328 C 323.292 143.758,322.734 142.986,322.304 142.613 C 321.875 142.239,321.523 141.734,321.523 141.489 C 321.523 141.245,321.154 140.877,320.702 140.671 C 320.250 140.465,319.798 140.036,319.696 139.718 C 319.595 139.399,319.144 139.046,318.693 138.933 C 318.242 138.820,317.448 138.283,316.930 137.741 C 316.412 137.199,315.749 136.755,315.456 136.755 C 315.163 136.755,314.772 136.471,314.586 136.123 C 314.340 135.663,313.598 135.382,311.848 135.087 C 310.527 134.864,309.296 134.490,309.111 134.255 C 308.624 133.635,306.412 133.117,304.249 133.114 C 303.217 133.113,302.322 132.958,302.259 132.770 C 302.039 132.110,299.482 131.486,296.937 131.471 C 295.457 131.463,294.371 131.317,294.371 131.126 C 294.371 130.944,295.153 130.794,296.109 130.793 C 298.260 130.791,300.308 130.247,300.550 129.615 C 300.770 129.042,321.854 128.886,321.854 129.457 C 321.854 130.243,325.338 130.795,330.296 130.795 C 334.835 130.795,335.444 130.865,336.776 131.540 C 339.658 133.001,367.499 132.798,369.205 131.303 C 369.478 131.064,370.703 130.807,371.926 130.734 C 373.582 130.633,374.344 130.424,374.907 129.913 C 375.322 129.535,376.257 129.136,376.984 129.025 C 377.711 128.914,378.358 128.668,378.421 128.479 C 378.671 127.728,379.565 127.152,380.480 127.152 C 381.140 127.152,381.612 126.893,381.984 126.325 C 382.282 125.869,382.797 125.497,383.128 125.497 C 383.459 125.497,383.826 125.196,383.942 124.829 C 384.059 124.462,384.709 123.878,385.388 123.532 C 386.093 123.172,386.898 122.388,387.268 121.701 C 387.623 121.039,388.249 120.279,388.659 120.010 C 389.069 119.741,389.404 119.337,389.404 119.112 C 389.404 118.887,389.700 118.517,390.062 118.291 C 390.456 118.045,390.805 117.352,390.931 116.567 C 391.064 115.732,391.410 115.078,391.881 114.770 C 392.372 114.448,392.682 113.834,392.801 112.948 C 392.900 112.214,393.278 111.234,393.641 110.772 C 394.120 110.163,394.364 109.181,394.526 107.201 C 394.652 105.668,395.030 103.854,395.388 103.067 C 396.355 100.941,396.337 92.206,395.364 90.969 C 394.902 90.381,394.694 89.594,394.674 88.358 C 394.625 85.282,394.188 82.716,393.646 82.319 C 393.362 82.112,393.020 81.286,392.884 80.483 C 392.749 79.681,392.358 78.566,392.017 78.005 C 391.676 77.445,391.310 76.763,391.204 76.490 C 391.098 76.217,390.873 75.770,390.702 75.497 C 390.532 75.224,390.291 74.776,390.165 74.503 C 390.040 74.230,389.743 73.810,389.505 73.569 C 389.267 73.328,389.073 72.929,389.073 72.683 C 389.073 72.436,388.730 71.962,388.310 71.630 C 387.891 71.298,387.443 70.752,387.315 70.416 C 387.187 70.080,386.799 69.731,386.453 69.640 C 386.106 69.549,385.746 69.180,385.651 68.819 C 385.557 68.458,385.171 68.082,384.793 67.983 C 384.415 67.884,384.106 67.601,384.106 67.353 C 384.106 67.105,383.696 66.641,383.195 66.321 C 382.695 66.002,382.090 65.477,381.852 65.155 C 381.614 64.833,381.264 64.570,381.074 64.570 C 380.885 64.570,380.312 64.123,379.801 63.576 C 379.291 63.030,378.578 62.583,378.216 62.583 C 377.855 62.583,377.316 62.210,377.017 61.755 C 376.719 61.300,376.260 60.927,375.997 60.927 C 375.735 60.927,375.361 60.630,375.167 60.267 C 374.960 59.881,374.199 59.452,373.334 59.234 C 372.499 59.024,371.854 58.668,371.854 58.416 C 371.854 57.876,370.827 57.285,369.889 57.285 C 369.513 57.285,369.205 57.168,369.205 57.025 C 369.205 56.631,367.368 55.629,366.646 55.629 C 366.296 55.629,365.677 55.275,365.270 54.842 C 364.825 54.368,364.000 53.984,363.193 53.876 C 362.397 53.769,361.672 53.436,361.404 53.052 C 361.110 52.632,360.423 52.347,359.436 52.236 C 358.602 52.142,357.665 51.845,357.354 51.576 C 356.452 50.797,354.687 50.331,352.635 50.331 C 351.337 50.331,350.678 50.188,350.560 49.881 C 350.346 49.324,347.873 48.675,345.960 48.675 C 344.889 48.675,344.426 48.509,344.117 48.013 C 343.889 47.649,343.481 47.351,343.209 47.351 C 342.937 47.351,342.715 47.166,342.715 46.941 C 342.715 46.715,342.305 46.110,341.805 45.597 C 341.304 45.083,340.559 44.320,340.150 43.900 C 339.741 43.481,339.311 42.665,339.195 42.087 C 339.080 41.509,338.744 40.855,338.450 40.634 C 338.155 40.413,337.581 39.524,337.173 38.659 C 336.766 37.794,336.282 37.086,336.097 37.086 C 335.913 37.086,335.762 36.765,335.762 36.372 C 335.762 35.980,335.413 35.197,334.987 34.634 C 332.956 31.946,333.513 30.936,337.147 30.715 C 339.349 30.581,340.253 30.376,341.006 29.839 C 341.547 29.454,342.265 29.138,342.601 29.137 C 343.499 29.134,345.015 28.033,345.555 26.992 C 346.341 25.476,346.101 23.179,345.155 23.179 C 344.897 23.179,344.543 22.802,344.368 22.343 C 344.193 21.883,343.787 21.410,343.465 21.293 C 343.144 21.175,342.460 20.732,341.945 20.308 C 341.430 19.884,340.645 19.536,340.199 19.536 C 339.657 19.536,339.265 19.263,339.013 18.709 C 338.805 18.253,338.399 17.880,338.109 17.879 C 337.820 17.879,336.912 17.432,336.093 16.887 C 335.273 16.343,334.342 15.896,334.023 15.895 C 333.704 15.895,333.444 15.684,333.444 15.428 C 333.444 15.146,332.790 14.794,331.788 14.538 C 330.877 14.304,330.132 13.942,330.132 13.732 C 330.132 13.285,328.719 12.583,327.818 12.583 C 327.472 12.583,326.982 12.286,326.728 11.923 C 326.473 11.560,325.757 11.168,325.136 11.053 C 324.515 10.937,323.683 10.508,323.287 10.099 C 322.891 9.689,322.054 9.259,321.428 9.141 C 320.802 9.024,320.025 8.635,319.702 8.278 C 319.379 7.921,318.576 7.529,317.918 7.406 C 317.260 7.284,316.539 6.926,316.316 6.611 C 316.093 6.295,315.353 5.932,314.672 5.805 C 313.991 5.677,313.101 5.213,312.693 4.773 C 312.226 4.269,311.584 3.974,310.955 3.974 C 310.303 3.974,309.837 3.749,309.610 3.326 C 309.420 2.969,308.707 2.523,308.026 2.334 C 306.667 1.957,285.912 1.933,281.883 2.304 M281.893 24.623 C 282.223 25.127,282.855 25.477,283.670 25.608 C 284.421 25.729,285.103 26.083,285.350 26.482 C 285.580 26.851,286.056 27.152,286.410 27.152 C 286.763 27.152,287.438 27.510,287.910 27.948 C 288.382 28.385,289.138 28.836,289.591 28.949 C 290.044 29.063,290.708 29.450,291.068 29.810 C 291.428 30.169,292.012 30.464,292.367 30.464 C 292.722 30.464,293.411 30.833,293.897 31.284 C 294.384 31.735,295.279 32.197,295.885 32.311 C 296.524 32.431,297.207 32.852,297.508 33.312 C 297.794 33.749,298.311 34.106,298.656 34.106 C 300.355 34.106,300.331 33.997,300.331 41.736 L 300.331 48.965 299.089 48.767 C 298.406 48.657,297.665 48.312,297.442 47.998 C 297.219 47.684,296.486 47.325,295.814 47.198 C 295.116 47.067,294.321 46.625,293.961 46.167 C 293.549 45.643,292.992 45.364,292.358 45.364 C 291.744 45.364,291.131 45.071,290.693 44.567 C 290.312 44.129,289.461 43.669,288.803 43.545 C 288.144 43.422,287.410 43.041,287.171 42.700 C 286.932 42.359,286.207 41.980,285.560 41.859 C 284.913 41.737,284.030 41.284,283.597 40.852 C 283.165 40.420,282.575 40.066,282.286 40.066 C 281.997 40.066,281.434 39.762,281.036 39.391 C 280.637 39.020,279.936 38.629,279.477 38.524 C 279.018 38.418,278.493 38.150,278.311 37.928 C 277.834 37.347,276.631 36.755,275.929 36.755 C 275.597 36.755,275.148 36.471,274.931 36.124 C 274.714 35.777,273.970 35.307,273.278 35.080 C 270.828 34.278,270.101 33.132,271.275 31.927 C 271.685 31.506,272.355 30.813,272.765 30.387 C 273.175 29.961,273.510 29.416,273.510 29.175 C 273.510 28.935,273.957 28.173,274.503 27.483 C 275.050 26.794,275.497 26.082,275.497 25.902 C 275.497 25.721,275.806 25.493,276.184 25.394 C 276.561 25.296,276.951 24.906,277.050 24.528 C 277.335 23.436,281.165 23.511,281.893 24.623 M325.215 33.195 C 325.574 33.605,326.156 34.558,326.510 35.312 C 326.863 36.067,327.375 36.770,327.649 36.875 C 327.922 36.980,328.146 37.341,328.146 37.678 C 328.146 38.015,328.518 38.615,328.974 39.011 C 329.505 39.473,329.801 40.079,329.801 40.702 C 329.801 41.327,330.079 41.892,330.579 42.285 C 331.006 42.622,331.539 43.451,331.763 44.128 C 331.986 44.805,332.350 45.472,332.571 45.610 C 333.420 46.140,334.133 48.675,333.433 48.675 C 332.247 48.675,329.458 49.398,329.043 49.812 C 328.738 50.117,326.174 50.285,319.528 50.434 C 314.524 50.547,309.872 50.777,309.189 50.947 C 308.081 51.222,307.947 51.187,307.947 50.624 C 307.947 50.277,307.649 49.738,307.285 49.426 C 306.440 48.703,306.234 35.762,307.068 35.762 C 307.313 35.762,307.771 35.477,308.085 35.130 C 308.548 34.619,309.331 34.452,312.175 34.258 C 315.608 34.024,317.881 33.434,317.881 32.777 C 317.881 32.013,324.511 32.392,325.215 33.195 M312.728 190.451 C 311.756 191.497,311.756 191.497,312.651 190.865 C 313.145 190.517,313.624 190.046,313.717 189.818 C 313.974 189.189,313.790 189.308,312.728 190.451 M64.996 204.923 C 64.577 205.361,63.758 205.591,62.194 205.711 C 60.719 205.824,59.670 206.103,59.041 206.551 C 58.523 206.920,57.383 207.329,56.507 207.460 C 55.632 207.591,54.666 207.965,54.362 208.290 C 54.057 208.616,53.241 208.988,52.547 209.117 C 51.761 209.264,51.093 209.648,50.771 210.140 C 50.487 210.573,49.933 210.927,49.539 210.927 C 48.631 210.927,47.351 211.810,47.351 212.436 C 47.351 212.699,47.050 212.914,46.682 212.914 C 46.295 212.914,45.858 213.252,45.648 213.714 C 45.447 214.154,45.004 214.586,44.663 214.676 C 44.322 214.765,43.961 215.113,43.861 215.449 C 43.762 215.785,43.364 216.656,42.977 217.384 C 41.773 219.655,41.720 229.089,42.905 230.275 C 43.165 230.535,43.377 230.959,43.377 231.218 C 43.377 232.218,44.123 233.756,44.695 233.938 C 45.048 234.050,45.380 234.583,45.502 235.234 C 45.719 236.392,46.366 236.767,49.834 237.749 C 51.825 238.312,67.266 238.066,67.996 237.459 C 68.490 237.049,68.543 235.568,68.543 222.322 L 68.543 207.639 67.606 206.551 C 67.090 205.953,66.573 205.203,66.457 204.884 C 66.185 204.138,65.737 204.150,64.996 204.923 M394.187 214.735 C 394.188 220.563,394.233 222.900,394.288 219.929 C 394.343 216.959,394.342 212.190,394.287 209.333 C 394.232 206.477,394.187 208.907,394.187 214.735 M146.026 207.195 C 144.545 207.760,138.100 215.034,137.904 216.362 C 137.513 219.007,137.882 242.163,138.327 242.941 C 139.003 244.122,141.060 244.328,141.060 243.215 C 141.060 242.983,141.357 242.715,141.720 242.620 C 142.084 242.525,142.485 242.172,142.613 241.836 C 142.741 241.500,143.189 240.954,143.608 240.622 C 144.028 240.290,144.371 239.669,144.371 239.241 C 144.371 238.128,144.703 237.417,145.224 237.417 C 145.478 237.417,145.876 236.728,146.132 235.844 C 146.494 234.597,146.754 234.248,147.384 234.160 C 147.821 234.098,148.477 233.774,148.841 233.439 C 149.346 232.974,150.289 232.774,152.815 232.597 C 156.099 232.366,157.144 232.082,157.781 231.246 C 158.004 230.954,159.144 230.782,161.251 230.720 L 164.390 230.629 165.328 228.671 C 166.265 226.715,166.266 226.707,166.163 220.795 L 166.060 214.878 162.059 210.916 L 158.059 206.954 152.291 206.980 C 149.119 206.994,146.300 207.091,146.026 207.195 M353.294 210.743 C 353.731 211.209,354.139 211.589,354.200 211.589 C 354.498 211.589,353.426 210.253,352.995 210.087 C 352.722 209.983,352.857 210.278,353.294 210.743 M394.194 278.974 C 394.194 288.444,394.236 292.270,394.288 287.477 C 394.340 282.683,394.340 274.935,394.288 270.258 C 394.236 265.581,394.194 269.503,394.194 278.974 M63.576 268.130 L 62.417 268.709 62.327 274.586 C 62.254 279.348,62.149 280.464,61.775 280.464 C 61.138 280.464,60.596 283.207,60.596 286.430 C 60.596 288.550,60.454 289.293,59.856 290.304 C 58.473 292.647,58.549 311.649,59.949 313.263 C 60.305 313.673,60.596 314.340,60.596 314.745 C 60.596 315.742,61.475 317.782,62.046 318.111 C 62.301 318.258,62.564 318.675,62.631 319.040 C 62.697 319.404,63.088 319.850,63.498 320.030 C 63.909 320.211,64.328 320.621,64.429 320.941 C 64.926 322.506,67.833 321.832,68.345 320.033 C 68.957 317.886,68.535 268.231,67.903 267.892 C 66.928 267.371,64.870 267.483,63.576 268.130 M161.757 286.091 C 161.426 286.456,161.264 286.755,161.396 286.755 C 161.745 286.755,162.689 285.758,162.510 285.578 C 162.426 285.495,162.087 285.725,161.757 286.091 M355.474 287.401 C 355.352 287.598,355.091 287.659,354.893 287.537 C 354.695 287.415,354.626 287.465,354.740 287.649 C 355.005 288.079,353.518 289.492,353.151 289.159 C 352.999 289.020,352.973 289.081,353.095 289.293 C 353.216 289.505,353.128 289.745,352.899 289.827 C 352.671 289.909,352.574 290.075,352.686 290.195 C 352.797 290.316,353.588 289.725,354.444 288.881 C 355.300 288.037,355.932 287.278,355.848 287.194 C 355.764 287.111,355.596 287.203,355.474 287.401 M159.908 287.500 C 159.539 288.707,159.748 289.046,160.265 288.079 C 160.505 287.630,160.509 287.417,160.277 287.417 C 160.088 287.417,159.922 287.454,159.908 287.500 M311.441 308.699 C 311.529 308.931,311.905 309.309,312.274 309.540 C 312.929 309.949,312.932 309.938,312.395 309.119 C 311.826 308.250,311.155 307.955,311.441 308.699 M320.050 317.308 C 320.139 317.540,320.514 317.918,320.883 318.149 C 321.538 318.558,321.541 318.547,321.004 317.728 C 320.435 316.860,319.764 316.565,320.050 317.308 " stroke="none" fill="#040404" fill-rule="evenodd"></path></g></svg>