<?xml version="1.0" encoding="UTF-8" standalone="no"?>
<svg
   xmlns:dc="http://purl.org/dc/elements/1.1/"
   xmlns:cc="http://creativecommons.org/ns#"
   xmlns:rdf="http://www.w3.org/1999/02/22-rdf-syntax-ns#"
   xmlns:svg="http://www.w3.org/2000/svg"
   xmlns="http://www.w3.org/2000/svg"
   xmlns:sodipodi="http://sodipodi.sourceforge.net/DTD/sodipodi-0.dtd"
   xmlns:inkscape="http://www.inkscape.org/namespaces/inkscape"
   width="65.352081mm"
   height="54.239582mm"
   viewBox="0 0 65.352081 54.239582"
   version="1.1"
   id="svg8"
   inkscape:version="1.0.2-2 (e86c870879, 2021-01-15)"
   sodipodi:docname="HopsLogoVector.svg">
  <defs
     id="defs2" />
  <sodipodi:namedview
     id="base"
     pagecolor="#ffffff"
     bordercolor="#666666"
     borderopacity="1.0"
     inkscape:pageopacity="0.0"
     inkscape:pageshadow="2"
     inkscape:zoom="2.2272727"
     inkscape:cx="3.6877486"
     inkscape:cy="114.47065"
     inkscape:document-units="mm"
     inkscape:current-layer="layer1"
     inkscape:document-rotation="0"
     showgrid="false"
     inkscape:snap-global="false"
     fit-margin-top="0"
     fit-margin-left="0"
     fit-margin-right="0"
     fit-margin-bottom="0"
     inkscape:window-width="1267"
     inkscape:window-height="1009"
     inkscape:window-x="182"
     inkscape:window-y="2"
     inkscape:window-maximized="0" />
  <metadata
     id="metadata5">
    <rdf:RDF>
      <cc:Work
         rdf:about="">
        <dc:format>image/svg+xml</dc:format>
        <dc:type
           rdf:resource="http://purl.org/dc/dcmitype/StillImage" />
        <dc:title></dc:title>
      </cc:Work>
    </rdf:RDF>
  </metadata>
  <g
     inkscape:label="Layer 1"
     inkscape:groupmode="layer"
     id="layer1"
     transform="translate(-64.84182,-133.89807)">
    <path
       style="fill:#000000;stroke-width:0.264583"
       d="m 78.534472,187.64005 c -3.443349,-0.76833 -4.384919,-2.45066 -3.5719,-6.382 0.772779,-3.73676 0.501827,-5.24587 -1.346942,-7.50204 -0.531712,-0.64889 -1.175139,-1.58854 -1.429838,-2.08812 -0.919988,-1.8045 0.272195,-3.15115 3.444951,-3.89131 0.914384,-0.21331 1.713906,-0.43923 1.776717,-0.50204 0.06281,-0.0628 -0.294214,-0.52261 -0.793388,-1.02179 -0.988602,-0.9886 -1.487523,-2.36963 -1.489825,-4.1239 -8.2e-4,-0.61847 -0.09077,-1.12442 -0.199913,-1.12435 -0.109141,8e-5 -0.824793,0.2382 -1.590338,0.52917 -2.803593,1.06559 -5.215252,0.44254 -6.752324,-1.74444 -1.422286,-2.02367 -1.21662,-4.28811 0.569387,-6.26913 1.186119,-1.31563 2.692972,-2.0273 4.308659,-2.03492 1.024781,-0.005 1.41797,0.14978 2.340137,0.92023 0.60962,0.50932 1.233481,0.92604 1.386357,0.92604 0.152877,0 1.18341,-0.91023 2.290072,-2.02274 2.472355,-2.48543 4.175977,-3.34861 7.82192,-3.96316 2.509465,-0.423 2.780077,-0.42064 5.688543,0.0496 5.626224,0.90975 10.657163,0.45733 14.675333,-1.31969 1.79932,-0.79575 1.85564,-1.25073 0.28272,-2.28374 -1.58551,-1.04127 -3.18869,-1.58543 -5.40233,-1.83368 -2.463329,-0.27625 -3.194698,-0.91949 -3.194698,-2.80974 0,-1.41835 0.42559,-2.3075 1.682811,-3.51577 0.87153,-0.8376 1.018057,-0.88634 2.183927,-0.72654 2.39632,0.32845 5.87401,2.46903 6.32625,3.89391 0.0888,0.27972 0.25663,0.50859 0.37301,0.50859 0.25821,0 1.60483,-1.99696 1.60483,-2.37986 0,-0.151 -0.41672,-0.47326 -0.92604,-0.71614 -1.00087,-0.47728 -1.20376,-1.01982 -0.46302,-1.23816 0.25466,-0.0751 1.83488,-0.21667 3.5116,-0.31467 l 3.04858,-0.17818 3.25358,1.63097 c 1.91994,0.96243 3.21006,1.76155 3.1474,1.94953 -0.0584,0.1752 -0.5442,0.38975 -1.07956,0.47677 -0.53536,0.087 -1.03582,0.22066 -1.11214,0.29697 -0.0763,0.0763 0.28863,0.8562 0.81098,1.73307 0.87345,1.46626 1.04035,1.60791 2.07795,1.76351 2.39763,0.35954 5.79457,2.46885 6.65472,4.1322 0.7181,1.38864 0.96128,3.14318 0.64609,4.66145 -0.72487,3.49165 -3.6697,4.7456 -9.25139,3.93935 -3.63438,-0.52497 -5.7724,-0.51699 -7.04529,0.0263 l -1.0245,0.43726 1.92892,0.33306 c 1.0609,0.18318 2.22412,0.52649 2.58493,0.76291 2.13943,1.4018 4.66274,7.03915 3.83939,8.57758 -0.55062,1.02886 -1.61657,0.72796 -3.92959,-1.10927 -2.74095,-2.17713 -3.47359,-2.48199 -4.99003,-2.07641 -1.21387,0.32467 -4.68536,0.36964 -6.0473,0.0783 -0.63739,-0.13632 -1.07837,0.0206 -2.24896,0.80041 -0.80086,0.5335 -2.16728,1.25503 -3.036477,1.6034 -1.559093,0.62487 -1.588065,0.65575 -2.151826,2.29292 -0.986658,2.86529 -2.699927,4.01384 -6.889596,4.61867 -2.148213,0.31012 -2.280003,0.36757 -2.602378,1.13427 -0.415651,0.98854 -1.35059,1.74961 -2.938741,2.39222 l -1.203988,0.48717 0.161641,1.32475 c 0.234838,1.92465 -0.312893,7.04952 -0.929596,8.69781 -0.291148,0.77816 -0.750222,1.61472 -1.020166,1.85901 -0.673963,0.60993 -1.99688,0.72758 -3.759321,0.33432 z m 40.707568,-45.31346 c 0.47294,-0.0724 0.85989,-0.17722 0.85989,-0.23295 0,-0.0557 -0.43502,-0.83162 -0.96672,-1.72419 l -0.96672,-1.62285 -1.0838,0.16284 c -2.55864,0.38443 -2.53901,0.37428 -2.53901,1.31309 0,0.47957 0.0715,1.22934 0.15885,1.66617 l 0.15885,0.79422 1.75938,-0.11235 c 0.96766,-0.0618 2.14634,-0.17158 2.61928,-0.24398 z m -4.96094,-1.4176 v -1.57456 l -1.65364,-0.92324 c -2.51844,-1.40607 -2.42706,-1.40421 -3.34647,-0.0679 l -0.8177,1.18849 2.71047,1.46747 c 1.49076,0.80711 2.79976,1.47126 2.9089,1.47588 0.10914,0.005 0.19844,-0.70014 0.19844,-1.56614 z"
       id="path26" />
  </g>
</svg>
