<?xml version="1.0" encoding="UTF-8" standalone="no"?>
<svg
   xmlns:dc="http://purl.org/dc/elements/1.1/"
   xmlns:cc="http://creativecommons.org/ns#"
   xmlns:rdf="http://www.w3.org/1999/02/22-rdf-syntax-ns#"
   xmlns:svg="http://www.w3.org/2000/svg"
   xmlns="http://www.w3.org/2000/svg"
   xmlns:sodipodi="http://sodipodi.sourceforge.net/DTD/sodipodi-0.dtd"
   xmlns:inkscape="http://www.inkscape.org/namespaces/inkscape"
   width="87.112457mm"
   height="90.64344mm"
   viewBox="0 0 87.112456 90.643438"
   version="1.1"
   id="svg8"
   inkscape:version="1.0.2-2 (e86c870879, 2021-01-15)"
   sodipodi:docname="scholarshipVector.svg">
  <defs
     id="defs2" />
  <sodipodi:namedview
     id="base"
     pagecolor="#ffffff"
     bordercolor="#666666"
     borderopacity="1.0"
     inkscape:pageopacity="0.0"
     inkscape:pageshadow="2"
     inkscape:zoom="1"
     inkscape:cx="186.74382"
     inkscape:cy="282.31468"
     inkscape:document-units="mm"
     inkscape:current-layer="layer1"
     inkscape:document-rotation="0"
     showgrid="false"
     inkscape:snap-global="false"
     fit-margin-top="0"
     fit-margin-left="0"
     fit-margin-right="0"
     fit-margin-bottom="0"
     inkscape:window-width="1920"
     inkscape:window-height="1027"
     inkscape:window-x="-8"
     inkscape:window-y="-8"
     inkscape:window-maximized="1" />
  <metadata
     id="metadata5">
    <rdf:RDF>
      <cc:Work
         rdf:about="">
        <dc:format>image/svg+xml</dc:format>
        <dc:type
           rdf:resource="http://purl.org/dc/dcmitype/StillImage" />
        <dc:title></dc:title>
      </cc:Work>
    </rdf:RDF>
  </metadata>
  <g
     inkscape:label="Layer 1"
     inkscape:groupmode="layer"
     id="layer1"
     transform="translate(-56.42403,-120.07029)">
    <path
       style="fill:#000000;stroke-width:0.264583"
       d="m 80.433331,210.709 c -1.236927,-0.0287 -3.066582,-0.20695 -4.0659,-0.39618 -0.999318,-0.18922 -2.428068,-0.54429 -3.175,-0.78904 -0.746932,-0.24475 -2.251027,-0.891 -3.342434,-1.43612 -1.091406,-0.54512 -2.593871,-1.45113 -3.338811,-2.01336 -0.74494,-0.56224 -1.834737,-1.458 -2.421774,-1.99059 -0.587033,-0.5326 -1.650997,-1.72986 -2.364361,-2.66059 -0.713365,-0.93073 -1.733122,-2.47204 -2.266125,-3.42514 -0.533003,-0.9531 -1.33105,-2.84959 -1.773433,-4.21443 -0.442384,-1.36483 -0.935628,-3.55495 -1.096098,-4.86692 -0.160469,-1.31198 -0.213402,-3.36066 -0.117625,-4.55264 0.09577,-1.19197 0.412329,-3.03744 0.703455,-4.10104 0.291127,-1.0636 0.751798,-2.5368 1.023713,-3.27378 0.271918,-0.73698 0.873075,-1.98714 1.335905,-2.77812 0.462828,-0.79099 1.321689,-2.09301 1.908575,-2.89337 0.586885,-0.80036 1.795721,-2.1519 2.686301,-3.00342 0.89058,-0.85151 2.256248,-1.95899 3.034816,-2.46107 0.778568,-0.50207 2.207318,-1.31269 3.175,-1.80137 0.967682,-0.48867 2.592858,-1.13171 3.611504,-1.42898 1.018646,-0.29727 2.983177,-0.65308 4.365625,-0.7907 1.501601,-0.14948 3.508209,-0.15715 4.984176,-0.0191 1.35885,0.12713 3.26385,0.42769 4.233334,0.66791 0.969483,0.24022 2.477074,0.7592 3.350199,1.15329 0.873125,0.39409 2.425904,1.25536 3.450619,1.91395 1.024718,0.65858 2.611538,1.89032 3.526268,2.73719 0.91473,0.84688 2.17807,2.26254 2.80744,3.14592 0.62936,0.88337 1.50294,2.26098 1.94128,3.06134 0.43834,0.80037 1.08859,2.23001 1.44499,3.17698 0.35641,0.94698 0.86,2.89916 1.1191,4.33818 0.35549,1.97434 0.43125,3.3049 0.30869,5.42198 -0.0893,1.54306 -0.40248,3.74071 -0.69589,4.88366 -0.29342,1.14294 -1.05622,3.16701 -1.69511,4.49791 -0.6389,1.33091 -1.59329,3.01515 -2.12087,3.74275 -0.52758,0.7276 -1.68692,2.06027 -2.5763,2.96147 -0.88937,0.90121 -2.40723,2.16823 -3.373007,2.81561 -0.965779,0.64738 -2.481196,1.54517 -3.367595,1.9951 -0.8864,0.44992 -2.378382,1.05487 -3.315515,1.34432 -0.937133,0.28945 -2.593147,0.65322 -3.680032,0.80838 -1.086882,0.15516 -2.988183,0.25865 -4.22511,0.22998 z m 1.416677,-4.35343 c 1.973961,-0.10669 3.273356,-0.3591 5.34928,-1.03913 1.852247,-0.60675 3.371675,-1.32312 4.682588,-2.20771 1.067337,-0.72023 2.473179,-1.82778 3.124091,-2.46122 0.650915,-0.63344 1.748273,-1.94391 2.438583,-2.91216 0.69031,-0.96824 1.59558,-2.51605 2.01171,-3.43958 0.41613,-0.92352 0.94965,-2.53607 1.18559,-3.58345 0.23983,-1.06462 0.42695,-3.04793 0.42439,-4.49791 -0.003,-1.42648 -0.17811,-3.42704 -0.39019,-4.44569 -0.21717,-1.04314 -0.96114,-3.00771 -1.70333,-4.49792 -0.81857,-1.64355 -1.88235,-3.27321 -2.80821,-4.30201 -0.819762,-0.91091 -2.164552,-2.17424 -2.98843,-2.80742 -0.823876,-0.63318 -2.152801,-1.48263 -2.953165,-1.88767 -0.800365,-0.40504 -2.288646,-1.02861 -3.307292,-1.3857 -1.41686,-0.49669 -2.600103,-0.68212 -5.035272,-0.78911 -2.678655,-0.11769 -3.53835,-0.0511 -5.423959,0.42013 -1.232424,0.30798 -3.193269,1.02995 -4.357436,1.60437 -1.164167,0.57442 -2.890573,1.68604 -3.836459,2.47026 -0.945885,0.78423 -2.176944,1.98562 -2.735685,2.66977 -0.558742,0.68414 -1.414368,1.90562 -1.901392,2.7144 -0.487023,0.80878 -1.265144,2.50213 -1.729157,3.763 -0.73197,1.98898 -0.861166,2.73128 -0.975866,5.60688 -0.112554,2.82176 -0.04762,3.64071 0.43684,5.50969 0.312976,1.20741 1.037702,3.1274 1.610501,4.26664 0.572796,1.13924 1.668145,2.82706 2.434106,3.75072 0.765958,0.92367 1.633656,1.8907 1.928217,2.14896 0.294558,0.25827 1.283478,1.01555 2.197597,1.68286 0.91412,0.6673 2.500138,1.56542 3.524486,1.9958 1.024347,0.43039 2.836275,1.01013 4.026506,1.28832 1.677948,0.39218 2.749732,0.47414 4.771358,0.36488 z m -0.689073,-4.02708 c -0.181901,0.0611 -0.687916,0.0434 -1.124479,-0.0395 -0.770088,-0.14617 -0.796097,-0.19991 -0.872522,-1.80267 -0.04332,-0.9086 -0.102854,-1.6565 -0.132291,-1.662 -0.02944,-0.006 -0.52977,-0.0718 -1.111854,-0.14736 -0.582083,-0.0755 -1.809713,-0.4988 -2.728066,-0.94055 -1.123928,-0.54063 -1.919165,-1.1475 -2.432793,-1.85655 -0.419685,-0.57936 -0.900928,-1.66966 -1.06943,-2.4229 -0.168503,-0.75323 -0.264372,-1.66717 -0.21304,-2.03098 0.09206,-0.65243 0.127524,-0.66146 2.599547,-0.66146 2.506221,0 2.506221,0 2.705116,1.19063 0.139182,0.83316 0.440518,1.40907 1.003684,1.91823 0.442635,0.40018 0.908087,0.7276 1.034341,0.7276 0.126251,0 0.301342,-0.26789 0.389085,-0.59531 0.08775,-0.32742 0.161166,-1.68819 0.163153,-3.02393 l 0.0036,-2.42862 -1.513391,-0.43996 c -0.832366,-0.24198 -1.950667,-0.66304 -2.485114,-0.93569 -0.534446,-0.27265 -1.401707,-0.99808 -1.927244,-1.61205 -0.525539,-0.61397 -1.073449,-1.54081 -1.217578,-2.05965 -0.144132,-0.51883 -0.260104,-1.6577 -0.25772,-2.53083 0.0028,-1.02196 0.196112,-2.01165 0.54266,-2.77812 0.29608,-0.65485 0.918544,-1.58929 1.383253,-2.07655 0.464708,-0.48726 1.443698,-1.15368 2.175531,-1.48094 0.731832,-0.32726 1.767554,-0.67699 2.301605,-0.77718 0.956604,-0.17946 0.97218,-0.20257 1.050644,-1.55842 0.07925,-1.36934 0.08467,-1.37706 1.081035,-1.53788 0.611603,-0.0987 1.072441,-0.0485 1.183923,0.12893 0.100394,0.15982 0.18555,0.81489 0.189235,1.45572 0.0067,1.16515 0.0067,1.16515 1.594202,1.49125 0.873125,0.17936 2.06375,0.60599 2.645834,0.94808 0.582083,0.34209 1.355989,0.97218 1.719791,1.4002 0.363803,0.42802 0.813266,1.13493 0.998808,1.57091 0.185544,0.43599 0.364138,1.3375 0.396875,2.00335 l 0.05953,1.21065 h -2.501699 c -2.501699,0 -2.501699,0 -2.714882,-1.05833 -0.11725,-0.58209 -0.463193,-1.26669 -0.76876,-1.52136 -0.305565,-0.25466 -0.78051,-0.46302 -1.055428,-0.46302 -0.459566,0 -0.499856,0.23286 -0.499856,2.88885 v 2.88884 l 1.785937,0.5872 c 0.982266,0.32295 2.21963,0.8048 2.749696,1.07078 0.530069,0.26597 1.388001,0.97921 1.906519,1.58498 0.648149,0.75722 1.037007,1.5554 1.244361,2.55423 0.166619,0.8026 0.220687,2.00118 0.120804,2.67803 -0.09944,0.67387 -0.491403,1.79896 -0.871024,2.50021 -0.379625,0.70124 -1.073799,1.61177 -1.542614,2.02339 -0.468815,0.41163 -1.52146,0.99874 -2.33921,1.3047 -0.817751,0.30596 -1.668775,0.55629 -1.891163,0.55629 -0.22239,0 -0.634642,0.12325 -0.916117,0.27389 -0.41656,0.22294 -0.511773,0.56225 -0.511773,1.82378 0,1.00422 -0.116437,1.58903 -0.330729,1.66106 z m 0.932873,-7.99206 c 0.345692,0 0.917176,-0.30725 1.269966,-0.68277 0.482939,-0.51407 0.641432,-0.97737 0.641432,-1.875 0,-0.97823 -0.133241,-1.30682 -0.742357,-1.83076 -0.408297,-0.35121 -0.958699,-0.63855 -1.223113,-0.63855 -0.427588,0 -0.485934,0.27795 -0.527606,2.51354 -0.04628,2.48276 -0.03916,2.51354 0.581678,2.51354 z m -2.924521,-11.37708 c 0.113141,0 0.205711,-1.13912 0.205711,-2.53138 0,-2.50002 -0.0074,-2.52922 -0.595313,-2.35825 -0.327422,0.0952 -0.803672,0.41408 -1.058333,0.7086 -0.282239,0.32641 -0.461439,0.96308 -0.45897,1.63065 0.0021,0.60234 0.09152,1.22113 0.198437,1.37509 0.106913,0.15395 0.48877,0.48137 0.848572,0.7276 0.359799,0.24623 0.746752,0.44769 0.859896,0.44769 z m 34.006233,25.60069 c -8.67954,0.041 -14.48594,-0.0291 -14.48594,-0.17475 0,-0.13373 0.98227,-1.24194 2.18281,-2.46268 1.20055,-1.22075 2.63448,-2.83429 3.18651,-3.58565 0.55203,-0.75136 1.59373,-2.6013 2.31489,-4.11097 0.72115,-1.50967 1.55218,-3.68702 1.84673,-4.83856 0.29456,-1.15154 0.6711,-3.19644 0.83677,-4.54423 0.2284,-1.85808 0.22508,-3.15254 -0.0137,-5.35431 -0.17322,-1.59709 -0.61467,-3.93808 -0.98099,-5.2022 -0.36633,-1.26412 -1.0724,-3.14093 -1.56904,-4.17068 -0.49664,-1.02976 -1.49062,-2.76526 -2.20883,-3.85666 -0.71822,-1.09141 -2.27009,-2.93688 -3.44861,-4.10105 -1.17852,-1.16416 -2.14361,-2.20596 -2.14464,-2.3151 -0.001,-0.10914 4.7904,-0.19145 10.64761,-0.18291 5.85721,0.009 13.44745,0.11415 16.86719,0.23468 6.05406,0.21338 6.27566,0.24083 8.41948,1.04314 1.21098,0.4532 2.69926,1.17005 3.3073,1.593 0.60803,0.42295 1.53813,1.22647 2.06688,1.7856 0.52876,0.55913 1.26491,1.50759 1.63589,2.10769 0.37099,0.6001 0.9504,1.96932 1.28759,3.04271 0.61307,1.95161 0.61307,1.95161 0.61307,18.48807 v 16.53646 h -6.35 -6.35 l -0.13229,-10.58334 -0.1323,-10.58333 -1.38605,-0.0799 -1.38604,-0.0799 -0.0692,10.66321 -0.0692,10.6632 z m -4.56406,-47.41536 c -1.61648,0.061 -3.23707,-0.0365 -4.16554,-0.25043 -0.83583,-0.19262 -2.27946,-0.72425 -3.20806,-1.18139 -0.9286,-0.45715 -2.26879,-1.2658 -2.97821,-1.79699 -0.70943,-0.5312 -1.86498,-1.6324 -2.567912,-2.44711 -0.702926,-0.81471 -1.690605,-2.33847 -2.19484,-3.38614 -0.504235,-1.04767 -1.104273,-2.89314 -1.333416,-4.10104 -0.275526,-1.45241 -0.364288,-2.86824 -0.262093,-4.18057 0.08499,-1.0914 0.342029,-2.60945 0.571196,-3.37343 0.264469,-0.88169 0.563186,-1.38907 0.817803,-1.38907 0.220628,0 0.900626,0.22338 1.511104,0.4964 0.610481,0.27302 2.657778,1.18297 4.549548,2.0221 1.89177,0.83914 4.43367,1.98497 5.64867,2.54631 1.21499,0.56134 2.28656,1.02019 2.38125,1.01968 0.0947,-5.3e-4 2.13669,-0.78733 4.53779,-1.74847 2.40109,-0.96113 5.83221,-2.32993 7.6247,-3.04177 1.79249,-0.71184 3.36674,-1.29425 3.49834,-1.29425 0.13159,0 0.44844,0.68461 0.70411,1.52136 0.32152,1.05226 0.46604,2.41874 0.46869,4.43177 0.003,2.26813 -0.12456,3.31914 -0.57794,4.7625 -0.31997,1.01864 -1.03357,2.59259 -1.58577,3.49765 -0.5522,0.90506 -1.64606,2.30881 -2.43078,3.11944 -0.78472,0.81063 -2.23941,1.95665 -3.23263,2.54672 -0.99322,0.59006 -2.55383,1.31001 -3.46802,1.59989 -1.03862,0.32934 -2.65472,0.56449 -4.30799,0.62684 z m 20.66508,-4.1145 c -0.16991,0 -0.46797,-0.53864 -0.66236,-1.19698 -0.23402,-0.79257 -0.67639,-1.4632 -1.30934,-1.98493 -0.95591,-0.78794 -0.95591,-0.78794 -0.48418,-1.51499 0.25945,-0.39988 0.8315,-1.50096 1.27123,-2.44685 0.43973,-0.94589 0.96926,-2.36988 1.17673,-3.16444 0.20747,-0.79456 0.37721,-2.05301 0.37721,-2.79656 0,-1.10842 -0.11787,-1.4544 -0.65445,-1.92094 -0.35994,-0.31297 -0.73004,-0.87022 -0.82243,-1.23834 -0.0924,-0.36812 -0.0954,-0.95863 -0.007,-1.31226 0.0888,-0.35363 0.33979,-0.82137 0.55785,-1.03943 0.27749,-0.2775 0.39648,-0.95798 0.39648,-2.26746 0,-1.52854 -0.0765,-1.87099 -0.4179,-1.87099 -0.22984,0 -1.15258,0.28495 -2.05052,0.63323 -0.89794,0.34827 -2.16841,0.8174 -2.82325,1.0425 -0.65485,0.22511 -3.39328,1.31329 -6.08542,2.41818 -2.69213,1.1049 -6.09343,2.48176 -7.55845,3.05971 l -2.66365,1.05081 -2.49572,-1.07781 c -1.37265,-0.59279 -3.09103,-1.36581 -3.81864,-1.71781 -0.7276,-0.35201 -2.45401,-1.13063 -3.83646,-1.73028 -1.382443,-0.59966 -4.775725,-2.0147 -7.540621,-3.14455 -2.764895,-1.12985 -5.896009,-2.37964 -6.958031,-2.77732 -1.062021,-0.39768 -1.890093,-0.84562 -1.840161,-0.99542 0.04994,-0.1498 1.871361,-1.04154 4.047615,-1.98165 2.176256,-0.94012 4.909327,-2.10627 6.073494,-2.59145 1.164167,-0.48518 3.843073,-1.61149 5.953124,-2.50291 2.11005,-0.89141 5.13598,-2.16091 6.72428,-2.8211 2.16289,-0.89903 3.09274,-1.16096 3.70417,-1.04344 0.44899,0.0863 2.66181,0.88362 4.91738,1.77181 2.25558,0.88819 6.00605,2.36629 8.33438,3.28467 2.32833,0.91838 6.52203,2.57281 9.31933,3.67652 2.7973,1.1037 5.20831,2.00673 5.35781,2.00673 0.1495,0 0.27182,0.10448 0.27182,0.23219 0,0.1277 -0.14883,0.34993 -0.33073,0.49384 -0.1819,0.14391 -1.313,0.58499 -2.51354,0.98017 l -2.18281,0.71851 v 2.4508 c 0,2.11479 0.0726,2.51647 0.52916,2.9297 0.3448,0.31203 0.52917,0.81491 0.52917,1.4433 0,0.53042 -0.13648,1.10088 -0.30328,1.26769 -0.22799,0.22798 -0.16868,0.61883 0.23889,1.57427 0.29821,0.69904 0.73234,1.91768 0.96475,2.70807 0.2324,0.7904 0.42127,2.33821 0.41969,3.43959 -0.002,1.10137 -0.1708,2.55584 -0.37606,3.23215 -0.20526,0.67632 -0.55236,1.56928 -0.77133,1.98438 -0.21898,0.41509 -0.83724,1.2012 -1.37391,1.7469 -0.53667,0.54571 -1.11479,0.99219 -1.28471,0.99219 z"
       id="path116" />
    <path
       style="fill:#000000;stroke-width:0.264583"
       d="m 103.45208,203.19998 v -0.13229 h 0.13229 0.13229 v 0.13229 0.13229 h -0.13229 -0.13229 z m -14.287499,-3.96875 v -0.13229 h 0.132292 0.132291 v 0.13229 0.13229 h -0.132291 -0.132292 z m -2.116667,-11.37709 v -0.13229 h 0.132292 0.132292 v 0.13229 0.1323 h -0.132292 -0.132292 z m -19.05,-16.93333 v -0.13229 h 0.132292 0.132291 v 0.13229 0.13229 h -0.132291 -0.132292 z m 32.543746,-1.05833 v -0.13229 h 0.1323 0.13229 v 0.13229 0.13229 h -0.13229 -0.1323 z m -25.399996,-0.52917 v -0.13229 h 0.132292 0.132292 v 0.13229 0.13229 h -0.132292 -0.132292 z m 64.293756,-1.5875 v -0.13229 h 0.13229 0.13229 v 0.13229 0.13229 h -0.13229 -0.13229 z m -56.356256,-3.43958 v -0.13229 h 0.132292 0.132292 v 0.13229 0.13229 h -0.132292 -0.132292 z m 14.552084,-22.75417 v -0.13229 h 0.132292 0.132291 v 0.13229 0.13229 H 97.76354 97.631248 Z m 29.104172,0 v -0.13229 H 126.86771 127 v 0.13229 0.13229 h -0.13229 -0.13229 z m -8.73126,-0.52917 v -0.13229 h 0.1323 0.13229 v 0.13229 0.1323 h -0.13229 -0.1323 z m 8.46667,-3.175 v -0.13229 h 0.13229 0.1323 v 0.13229 0.1323 h -0.1323 -0.13229 z"
       id="path112" />
    <path
       style="fill:#000000;stroke-width:0.264583"
       id="path58"
       d="" />
    <path
       style="fill:#000000;stroke-width:0.264583"
       id="path56"
       d="" />
  </g>
</svg>
